<svg width="180" height="123" viewBox="0 0 180 123" fill="none" xmlns="http://www.w3.org/2000/svg">
<g opacity="0.3">
<mask id="mask0_11334_42326" style="mask-type:luminance" maskUnits="userSpaceOnUse" x="0" y="0" width="180" height="123">
<path d="M160.435 116.96C155.304 118.604 149.054 119.049 144.09 118.706C144.09 118.706 52.8221 127.498 19.8318 118.484C-4.58464 111.813 -1.63682 88.0651 5.83518 72.8645C13.3927 57.4906 -6.44564 27.7737 25.4442 10.5411C43.7867 0.629239 60.2381 16.4904 91.9482 4.78159C120.577 -5.79012 157.506 3.66605 166.537 25.8373C172.749 41.0897 164.917 57.5316 172.749 65.5006C185.45 78.4256 179.61 110.821 160.436 116.96H160.435Z" fill="white"/>
</mask>
<g mask="url(#mask0_11334_42326)">
<path d="M160.435 116.96C155.304 118.604 149.054 119.049 144.09 118.706C144.09 118.706 52.8221 127.498 19.8318 118.484C-4.58464 111.813 -1.63682 88.0651 5.83518 72.8645C13.3927 57.4906 -6.44564 27.7737 25.4442 10.5411C43.7867 0.629239 60.2381 16.4904 91.9482 4.78159C120.577 -5.79012 157.506 3.66605 166.537 25.8373C172.749 41.0897 164.917 57.5316 172.749 65.5006C185.45 78.4256 179.61 110.821 160.436 116.96H160.435Z" fill="#DAE6FF"/>
<path d="M43.5998 121.877C43.607 121.877 43.6135 121.877 43.6206 121.876C43.6774 121.865 43.7148 121.811 43.704 121.754C40.956 106.957 38.1376 96.4149 35.7684 92.0684C35.7159 91.9721 35.6778 91.9024 35.6642 91.8679C35.6433 91.814 35.5822 91.7881 35.529 91.809C35.4751 91.8298 35.4492 91.8909 35.4701 91.9441C35.4888 91.9908 35.5247 92.0577 35.5851 92.1683C37.9442 96.4954 40.7548 107.016 43.4984 121.793C43.5078 121.842 43.5502 121.877 43.5991 121.878L43.5998 121.877Z" fill="#BBCFF8"/>
<path d="M33.8895 91.118C34.1727 91.6075 35.7569 92.6224 35.8971 92.5412C36.0373 92.46 35.946 90.5811 35.6628 90.0916C35.3796 89.6021 34.7528 89.4346 34.2632 89.7178C33.7737 90.001 33.6063 90.6278 33.8895 91.1173V91.118Z" fill="#BBCFF8"/>
<path d="M36.9731 92.8492C36.7474 93.3825 36.894 95.3009 37.0464 95.3656C37.1988 95.4303 38.6781 94.1991 38.9031 93.6657C39.1288 93.1324 38.8794 92.5179 38.346 92.2922C37.8127 92.0665 37.1981 92.3159 36.9724 92.8492H36.9731Z" fill="#BBCFF8"/>
<path d="M34.6184 95.9208C35.1884 96.0207 37.025 95.4457 37.0537 95.2825C37.0825 95.1201 35.5493 93.9556 34.9792 93.8557C34.4092 93.7558 33.8658 94.1375 33.7666 94.7075C33.6667 95.2775 34.0484 95.8209 34.6184 95.92V95.9208Z" fill="#BBCFF8"/>
<path d="M40.8598 102.881C40.3868 103.73 40.2847 106.959 40.527 107.094C40.7692 107.229 43.4604 105.442 43.9334 104.593C44.4064 103.744 44.1016 102.673 43.2527 102.2C42.4038 101.727 41.3327 102.032 40.8598 102.881Z" fill="#BBCFF8"/>
<path d="M36.3744 107.581C37.3074 107.851 40.4766 107.223 40.5535 106.957C40.6304 106.69 38.2835 104.471 37.3505 104.201C36.4168 103.932 35.4421 104.47 35.1725 105.403C34.903 106.336 35.4414 107.311 36.3744 107.581Z" fill="#BBCFF8"/>
<path d="M42.9802 106.738C42.1874 107.624 41.1954 111.451 41.4477 111.677C41.7008 111.903 45.3947 110.495 46.1876 109.61C46.9804 108.724 46.9049 107.363 46.0194 106.57C45.1338 105.777 43.7731 105.853 42.9795 106.738H42.9802Z" fill="#BBCFF8"/>
<path d="M36.6331 112.837C37.8033 113.048 41.5814 111.885 41.6417 111.551C41.7021 111.217 38.5653 108.81 37.3958 108.6C36.2255 108.389 35.1064 109.167 34.8957 110.337C34.6851 111.507 35.4629 112.626 36.6331 112.837Z" fill="#BBCFF8"/>
<path d="M44.0254 111.579C43.2326 112.465 42.2406 116.291 42.4929 116.518C42.7459 116.744 46.4399 115.336 47.2327 114.451C48.0256 113.565 47.9501 112.204 47.0645 111.411C46.1789 110.618 44.8182 110.694 44.0247 111.579H44.0254Z" fill="#BBCFF8"/>
<path d="M37.6783 117.679C38.8485 117.889 42.6265 116.727 42.6869 116.393C42.7473 116.059 39.6104 113.652 38.4409 113.442C37.2707 113.231 36.1515 114.009 35.9409 115.179C35.7303 116.349 36.508 117.468 37.6783 117.679Z" fill="#BBCFF8"/>
<path d="M46.7927 117.822C45.7224 118.338 43.3475 121.499 43.4948 121.804C43.6422 122.11 47.5942 122.215 48.6652 121.698C49.7355 121.181 50.1848 119.894 49.6679 118.824C49.1511 117.753 47.8637 117.304 46.7934 117.821L46.7927 117.822Z" fill="#BBCFF8"/>
<path d="M38.5503 122.45C39.6845 122.805 43.579 122.124 43.6804 121.8C43.7817 121.476 40.9712 118.696 39.8362 118.341C38.7019 117.986 37.4936 118.618 37.1385 119.752C36.7834 120.886 37.4153 122.094 38.5495 122.45H38.5503Z" fill="#BBCFF8"/>
<path d="M38.1692 95.9714C37.9399 96.5127 38.0887 98.4627 38.244 98.5281C38.3985 98.5935 39.9015 97.3428 40.1308 96.8009C40.3601 96.2596 40.1064 95.6343 39.5651 95.4057C39.0239 95.1765 38.3985 95.4302 38.1699 95.9714H38.1692Z" fill="#BBCFF8"/>
<path d="M35.8482 99.135C36.4276 99.2363 38.2936 98.652 38.3224 98.4866C38.3511 98.3213 36.7942 97.1382 36.2148 97.0376C35.6355 96.9362 35.0841 97.3237 34.9828 97.903C34.8814 98.4823 35.2689 99.0336 35.8482 99.135Z" fill="#BBCFF8"/>
<path d="M39.6019 98.9055C39.2144 99.6459 39.1979 102.424 39.4092 102.534C39.6205 102.645 41.8941 101.049 42.2823 100.309C42.6697 99.5682 42.3844 98.6547 41.644 98.2665C40.9036 97.8791 39.99 98.1652 39.6019 98.9048V98.9055Z" fill="#BBCFF8"/>
<path d="M35.9287 103.364C36.7518 103.508 39.4027 102.678 39.4437 102.443C39.4847 102.208 37.2722 100.528 36.4499 100.384C35.6268 100.24 34.8433 100.791 34.6988 101.613C34.5551 102.436 35.1057 103.22 35.9287 103.364Z" fill="#BBCFF8"/>
<path d="M64.2231 132.416C64.2108 132.417 64.1979 132.417 64.185 132.416C64.0814 132.406 64.006 132.313 64.016 132.209C66.7144 105.18 70.1848 85.7918 73.7868 77.6165C73.8666 77.4346 73.9248 77.3038 73.9435 77.2398C73.9737 77.1399 74.0786 77.0838 74.1778 77.1133C74.2777 77.1435 74.3338 77.2477 74.3043 77.3476C74.2784 77.4346 74.2231 77.5604 74.1311 77.7688C70.5442 85.9082 67.0846 105.256 64.3905 132.247C64.3812 132.337 64.3093 132.406 64.2223 132.416H64.2231Z" fill="#BBCFF8"/>
<path d="M77.0221 75.6234C76.5865 76.547 73.8917 78.612 73.6279 78.4877C73.3641 78.3633 73.2419 74.97 73.6775 74.0471C74.1131 73.1235 75.2144 72.7282 76.138 73.163C77.0617 73.5986 77.457 74.6998 77.0221 75.6234Z" fill="#BBCFF8"/>
<path d="M71.7389 79.2043C72.2255 80.1286 72.2529 83.6024 71.9883 83.7411C71.7245 83.8799 68.8773 81.8903 68.3907 80.966C67.9041 80.0416 68.2592 78.8981 69.1835 78.4114C70.1079 77.9248 71.2515 78.2799 71.7382 79.2043H71.7389Z" fill="#BBCFF8"/>
<path d="M76.4399 84.3707C75.43 84.6367 72.0394 83.8812 71.9632 83.5923C71.887 83.3041 74.4675 80.9781 75.4774 80.7122C76.4881 80.4462 77.5225 81.05 77.7877 82.0599C78.0537 83.0705 77.4499 84.1048 76.4392 84.37L76.4399 84.3707Z" fill="#BBCFF8"/>
<path d="M66.2702 97.8358C67.2492 99.2906 67.9228 105.082 67.508 105.361C67.0925 105.641 61.9811 102.836 61.0021 101.381C60.0231 99.926 60.4091 97.9537 61.8639 96.9748C63.3188 95.9958 65.2912 96.3818 66.2702 97.8358Z" fill="#BBCFF8"/>
<path d="M75.0505 105.609C73.4131 106.235 67.6181 105.587 67.4398 105.12C67.2608 104.653 71.1453 100.304 72.7834 99.6779C74.4216 99.0519 76.2567 99.872 76.8828 101.509C77.5089 103.147 76.6887 104.982 75.0513 105.609H75.0505Z" fill="#BBCFF8"/>
<path d="M63.0414 105.094C64.6019 106.566 66.966 113.298 66.5455 113.743C66.125 114.189 59.2676 112.217 57.7071 110.744C56.1466 109.271 56.0754 106.812 57.5482 105.252C59.0211 103.691 61.4801 103.62 63.0406 105.093L63.0414 105.094Z" fill="#BBCFF8"/>
<path d="M75.3812 115.1C73.3089 115.657 66.3372 114.139 66.1783 113.547C66.0195 112.956 71.2955 108.152 73.3678 107.596C75.4401 107.039 77.5714 108.268 78.127 110.341C78.6827 112.414 77.4535 114.545 75.3812 115.1Z" fill="#BBCFF8"/>
<path d="M61.8956 113.959C63.4562 115.432 65.8203 122.164 65.4005 122.609C64.98 123.054 58.1226 121.082 56.5621 119.609C55.0015 118.136 54.9304 115.677 56.4032 114.117C57.8761 112.557 60.3351 112.485 61.8956 113.958V113.959Z" fill="#BBCFF8"/>
<path d="M74.2353 123.967C72.163 124.523 65.1906 123.005 65.0324 122.413C64.8736 121.822 70.1496 117.018 72.2219 116.462C74.2943 115.906 76.4248 117.135 76.9812 119.208C77.5375 121.28 76.3076 123.41 74.2353 123.967Z" fill="#BBCFF8"/>
<path d="M70.062 84.9997C70.5565 85.9391 70.5839 89.4683 70.3157 89.6092C70.0476 89.7501 67.1544 87.7289 66.6606 86.7895C66.1661 85.85 66.5269 84.6885 67.4664 84.194C68.4059 83.7002 69.5675 84.0603 70.062 84.9997Z" fill="#BBCFF8"/>
<path d="M74.7156 90.3401C73.6891 90.6096 70.2446 89.842 70.1669 89.5494C70.09 89.2562 72.7108 86.8929 73.7373 86.6233C74.7637 86.3531 75.8146 86.9669 76.0849 87.9933C76.3552 89.0197 75.7413 90.0706 74.7156 90.3408V90.3401Z" fill="#BBCFF8"/>
<path d="M67.9292 90.4953C68.7386 91.7676 69.1886 96.7616 68.8256 96.9923C68.4626 97.223 64.1303 94.698 63.3217 93.4258C62.5123 92.1535 62.8882 90.4659 64.1605 89.6572C65.4328 88.8479 67.1199 89.2238 67.9292 90.496V90.4953Z" fill="#BBCFF8"/>
<path d="M75.2122 97.9564C73.7538 98.3402 68.8601 97.2491 68.7502 96.8329C68.6409 96.4168 72.3643 93.0594 73.8228 92.6755C75.2812 92.2917 76.7742 93.1629 77.158 94.6213C77.5419 96.0797 76.6707 97.5725 75.2122 97.9564Z" fill="#BBCFF8"/>
<path d="M163.549 17.9224C163.543 17.9174 163.536 17.9131 163.529 17.9088C163.47 17.8771 163.397 17.9001 163.366 17.9591C155.184 33.3674 150.135 44.9662 149.149 50.6187C149.128 50.7444 149.112 50.835 149.099 50.876C149.08 50.94 149.116 51.0075 149.18 51.0269C149.244 51.0463 149.311 51.0104 149.331 50.9464C149.348 50.8904 149.363 50.8034 149.388 50.6596C150.369 45.0316 155.41 33.4587 163.58 18.0719C163.608 18.0202 163.594 17.9576 163.551 17.9217L163.549 17.9224Z" fill="#BBCFF8"/>
<path d="M150.168 52.8353C150.264 52.1869 149.558 50.1233 149.374 50.096C149.188 50.0687 147.915 51.839 147.819 52.4874C147.723 53.1357 148.17 53.7395 148.819 53.8358C149.468 53.9321 150.072 53.4836 150.168 52.8353Z" fill="#BBCFF8"/>
<path d="M148.619 49.0409C149.208 48.7203 150.46 46.8731 150.368 46.7049C150.277 46.5367 148.046 46.5863 147.457 46.9076C146.867 47.2281 146.65 47.9663 146.971 48.5557C147.292 49.1451 148.03 49.3622 148.619 49.0416V49.0409Z" fill="#BBCFF8"/>
<path d="M152.971 47.9533C152.526 47.4515 150.445 46.648 150.302 46.7752C150.159 46.9024 150.709 49.0638 151.155 49.5662C151.601 50.0679 152.368 50.1139 152.87 49.6682C153.372 49.2226 153.418 48.455 152.972 47.9533H152.971Z" fill="#BBCFF8"/>
<path d="M152.331 37.1344C153.372 36.7053 155.795 33.8496 155.672 33.5528C155.55 33.2559 151.818 32.9354 150.778 33.3645C149.736 33.7936 149.24 34.9853 149.669 36.0268C150.098 37.0683 151.29 37.5643 152.331 37.1351V37.1344Z" fill="#BBCFF8"/>
<path d="M159.791 36.1064C159.139 35.1885 155.811 33.4714 155.549 33.6575C155.287 33.8437 155.815 37.5511 156.468 38.469C157.12 39.3869 158.393 39.6018 159.311 38.9499C160.229 38.2972 160.444 37.0243 159.792 36.1064H159.791Z" fill="#BBCFF8"/>
<path d="M153.188 32.1064C154.547 31.875 158.208 29.1185 158.142 28.7304C158.076 28.3429 153.708 26.955 152.35 27.1871C150.991 27.4186 150.077 28.7081 150.31 30.0665C150.541 31.425 151.831 32.3386 153.188 32.1064Z" fill="#BBCFF8"/>
<path d="M163.348 31.1505C162.438 30.1154 158.171 28.4443 157.876 28.7037C157.58 28.9632 158.689 33.4096 159.599 34.4446C160.509 35.4796 162.086 35.5817 163.121 34.6717C164.156 33.7618 164.257 32.1855 163.348 31.1505Z" fill="#BBCFF8"/>
<path d="M155.733 26.959C157.092 26.7275 160.752 23.971 160.686 23.5829C160.62 23.1955 156.253 21.8075 154.894 22.0397C153.536 22.2711 152.622 23.5606 152.854 24.9184C153.086 26.2768 154.375 27.1904 155.733 26.9582V26.959Z" fill="#BBCFF8"/>
<path d="M165.893 26.004C164.983 24.9689 160.716 23.2978 160.42 23.5573C160.125 23.8167 161.234 28.2631 162.144 29.2981C163.054 30.3331 164.63 30.4345 165.665 29.5252C166.7 28.6153 166.802 27.039 165.893 26.004Z" fill="#BBCFF8"/>
<path d="M157.725 19.2991C159.07 19.6024 163.505 18.4481 163.591 18.0643C163.677 17.6804 160.168 14.7342 158.823 14.4309C157.479 14.1276 156.143 14.9714 155.84 16.3155C155.537 17.6596 156.381 18.9951 157.725 19.2984L157.725 19.2991Z" fill="#BBCFF8"/>
<path d="M168.544 21.046C167.77 19.9053 163.746 17.7138 163.42 17.9344C163.094 18.1551 163.639 22.7049 164.413 23.8456C165.186 24.9863 166.737 25.2839 167.878 24.5112C169.019 23.7378 169.317 22.1867 168.544 21.046Z" fill="#BBCFF8"/>
<path d="M149.786 45.3454C150.385 45.0191 151.657 43.1431 151.563 42.972C151.47 42.8009 149.204 42.852 148.605 43.1776C148.006 43.5039 147.786 44.2528 148.112 44.8516C148.438 45.4503 149.187 45.671 149.786 45.3447V45.3454Z" fill="#BBCFF8"/>
<path d="M154.175 44.148C153.722 43.6383 151.608 42.8218 151.463 42.9512C151.317 43.0806 151.877 45.2772 152.329 45.7868C152.782 46.2964 153.562 46.3431 154.072 45.8903C154.581 45.4374 154.628 44.6576 154.175 44.148Z" fill="#BBCFF8"/>
<path d="M150.604 41.6487C151.489 41.257 153.508 38.7477 153.396 38.4955C153.284 38.2424 150.069 38.0505 149.184 38.4423C148.298 38.834 147.898 39.8697 148.29 40.7553C148.682 41.6408 149.718 42.0412 150.604 41.6487Z" fill="#BBCFF8"/>
<path d="M157.153 40.2536C156.51 39.5291 153.505 38.3697 153.298 38.5537C153.091 38.737 153.886 41.8579 154.53 42.5817C155.172 43.3062 156.281 43.3716 157.005 42.729C157.73 42.0865 157.795 40.9781 157.153 40.2536Z" fill="#BBCFF8"/>
<path d="M160.33 -4.19889C160.325 -4.2068 160.32 -4.21471 160.314 -4.22261C160.264 -4.28227 160.175 -4.2909 160.116 -4.24058C144.49 8.75986 133.925 19.0354 130.367 24.6943C130.288 24.8201 130.231 24.9107 130.199 24.9495C130.149 25.0099 130.159 25.0983 130.218 25.1479C130.279 25.1975 130.367 25.1881 130.417 25.1278C130.46 25.0753 130.514 24.9883 130.605 24.8438C134.148 19.2094 144.692 8.95681 160.295 -4.02495C160.348 -4.06879 160.361 -4.14211 160.329 -4.19961L160.33 -4.19889Z" fill="#BBCFF8"/>
<path d="M130.486 27.5353C130.876 26.8784 131.026 24.3425 130.839 24.2311C130.651 24.1197 128.497 25.466 128.106 26.1229C127.716 26.7799 127.932 27.6288 128.589 28.0183C129.246 28.4086 130.095 28.1923 130.485 27.5353H130.486Z" fill="#BBCFF8"/>
<path d="M130.491 22.7603C131.268 22.6748 133.433 21.2358 133.408 21.0137C133.384 20.7923 130.957 19.8608 130.18 19.947C129.403 20.0326 128.843 20.7326 128.929 21.5089C129.015 22.2859 129.714 22.8458 130.491 22.7603H130.491Z" fill="#BBCFF8"/>
<path d="M135.665 23.5087C135.406 22.7712 133.517 20.9858 133.306 21.0599C133.096 21.1339 132.735 23.7078 132.994 24.4453C133.252 25.1827 134.06 25.5709 134.798 25.3128C135.535 25.0541 135.923 24.2469 135.665 23.5087H135.665Z" fill="#BBCFF8"/>
<path d="M139.75 11.5616C141.062 11.5588 144.935 9.54979 144.934 9.17531C144.934 8.80083 141.052 6.80767 139.74 6.81055C138.428 6.81343 137.367 7.87936 137.37 9.19112C137.373 10.5029 138.438 11.5645 139.75 11.5616Z" fill="#BBCFF8"/>
<path d="M148.248 13.7472C147.95 12.4692 145.12 9.1492 144.755 9.23402C144.391 9.31883 143.323 13.5488 143.621 14.8268C143.919 16.1048 145.197 16.8983 146.475 16.6C147.753 16.3017 148.546 15.0245 148.248 13.7465V13.7472Z" fill="#BBCFF8"/>
<path d="M142.896 6.51898C144.463 6.86902 149.627 5.51342 149.727 5.06634C149.827 4.61926 145.73 1.19503 144.163 0.844989C142.596 0.494946 141.042 1.4811 140.692 3.04803C140.342 4.61495 141.328 6.16894 142.895 6.51898H142.896Z" fill="#BBCFF8"/>
<path d="M154.271 9.97412C153.747 8.45679 149.885 4.77093 149.451 4.92043C149.018 5.06994 148.251 10.3536 148.775 11.871C149.299 13.3883 150.954 14.194 152.472 13.6708C153.989 13.1468 154.795 11.4922 154.272 9.97412H154.271Z" fill="#BBCFF8"/>
<path d="M147.912 2.0932C149.479 2.44324 154.643 1.08764 154.742 0.64056C154.842 0.193483 150.746 -3.23075 149.179 -3.58079C147.612 -3.93083 146.058 -2.94468 145.708 -1.37775C145.358 0.189171 146.344 1.74316 147.911 2.0932H147.912Z" fill="#BBCFF8"/>
<path d="M159.287 5.54834C158.763 4.03101 154.9 0.345146 154.467 0.494651C154.034 0.644155 153.267 5.92785 153.791 7.44518C154.315 8.96251 155.969 9.76826 157.488 9.24499C159.005 8.721 159.811 7.06639 159.288 5.54834H159.287Z" fill="#BBCFF8"/>
<path d="M164.335 1.37491C164.005 -0.196331 160.633 -4.33574 160.185 -4.24158C159.736 -4.14742 158.314 0.998989 158.644 2.57023C158.974 4.14146 160.515 5.14774 162.087 4.81783C163.658 4.48791 164.664 2.94686 164.334 1.37562L164.335 1.37491Z" fill="#BBCFF8"/>
<path d="M133.382 19.291C134.171 19.2041 136.37 17.7421 136.345 17.5164C136.32 17.2914 133.855 16.3448 133.065 16.4325C132.276 16.5194 131.707 17.2303 131.794 18.0195C131.881 18.8087 132.592 19.378 133.381 19.291H133.382Z" fill="#BBCFF8"/>
<path d="M138.642 19.9382C138.379 19.1885 136.46 17.3751 136.245 17.4505C136.031 17.5253 135.665 20.1409 135.928 20.8899C136.191 21.6395 137.011 22.0334 137.761 21.7711C138.51 21.508 138.904 20.6879 138.642 19.9382Z" fill="#BBCFF8"/>
<path d="M135.895 15.6666C137.022 15.6349 140.307 13.8215 140.298 13.4995C140.289 13.1774 136.908 11.5509 135.78 11.5825C134.652 11.6141 133.763 12.5543 133.796 13.682C133.827 14.8098 134.767 15.6982 135.895 15.6666H135.895Z" fill="#BBCFF8"/>
<path d="M143.572 17.0537C143.199 15.9892 140.472 13.4124 140.168 13.5188C139.864 13.6252 139.343 17.3405 139.717 18.4058C140.09 19.4703 141.256 20.0309 142.32 19.6579C143.385 19.2848 143.945 18.119 143.572 17.0537Z" fill="#BBCFF8"/>
<path d="M103.968 54.2098V47.2988L134.305 54.2098H103.968Z" fill="#0B0755"/>
<path d="M19.2043 80.0008C22.6495 78.8759 26.0193 77.7539 29.0965 76.6937C30.4795 76.2164 31.8013 75.7536 33.0456 75.3079C37.7574 73.6231 41.337 72.1985 42.71 71.3317C46.483 68.9518 53.1384 62.2004 56.9445 57.2186C56.9445 57.2186 56.9459 57.2164 56.9481 57.2142L56.9538 57.2063C57.3829 56.6435 57.7769 56.1037 58.124 55.5963C58.5158 55.0227 58.8508 54.4908 59.1174 54.01L59.1189 54.0085C59.226 53.8159 59.3201 53.6326 59.4057 53.4587C59.6666 52.9167 59.8154 52.4646 59.8269 52.1261C59.8384 51.8026 59.727 51.5834 59.4718 51.4878C59.0765 51.3376 58.5021 51.436 57.8106 51.7027H57.8085C57.7007 51.7458 57.5914 51.7904 57.4771 51.8407C57.158 51.9801 56.8194 52.1491 56.4636 52.3417C55.7491 52.7255 54.9714 53.2064 54.1684 53.7289C50.1654 56.3309 45.5535 59.9743 45.3012 58.1371C45.0518 56.2935 47.352 52.9778 49.7988 50.6116C50.0022 50.4132 50.2071 50.222 50.4105 50.0402C51.5728 48.9972 52.7222 48.2159 53.6035 47.95C54.8599 47.5683 57.5267 47.7142 59.893 48.3273C60.0893 48.3762 60.2812 48.4294 60.4702 48.4862C60.7901 48.5811 61.1006 48.6824 61.4025 48.7859H61.4032C63.7509 49.5909 65.5119 50.5117 66.0273 49.3286C66.2976 48.7069 65.9626 48.2591 65.3495 47.7789L65.3423 47.7732L65.3222 47.7574C65.1985 47.661 65.0627 47.564 64.9175 47.4634L64.8909 47.444C64.6465 47.2736 64.3791 47.0961 64.1016 46.8977H64.1009C64.1009 46.8977 64.1009 46.8977 64.1002 46.8963C63.8651 46.7317 63.6229 46.5548 63.3785 46.3608C60.3545 43.9414 54.8427 42.0201 54.8427 42.0201C54.8427 42.0201 57.9206 39.9774 61.4543 38.8036C64.2317 37.88 67.5656 37.8404 67.6921 36.9211C67.6921 36.9211 67.6921 36.9204 67.6921 36.9197C67.6964 36.8794 67.6964 36.8385 67.6892 36.7939C67.5843 36.1549 66.9143 35.7589 65.7513 35.5857C65.7499 35.5857 65.7477 35.5857 65.7455 35.5857H65.7362C63.8091 35.2996 60.5435 35.6245 56.2789 36.4697C49.4179 37.8311 48.3734 38.8654 48.4302 38.5283C48.4604 38.3515 51.6002 35.8293 55.2114 33.7672C58.2721 32.0184 62.0494 30.5492 61.6448 29.4682C61.6448 29.4675 61.6448 29.4667 61.6448 29.4667C61.6225 29.4049 61.5844 29.3431 61.5319 29.2835C61.2171 28.9226 60.1396 29.0585 58.6775 29.4775H58.6754C54.2784 30.7361 46.3895 34.5298 45.1906 34.9539C45.2804 34.8748 49.356 31.3276 49.2755 29.7622H49.2748C49.2705 29.668 49.2497 29.5789 49.213 29.5005C49.0225 29.1009 48.1369 29.3223 46.9078 29.916C43.8449 31.3995 38.6595 35.1968 36.8696 37.4365C36.1156 38.3802 35.3911 39.4476 34.7046 40.5898C33.7306 42.2041 32.8292 43.9687 32.0069 45.7563H32.0055C29.1252 52.0182 27.2225 58.5339 26.7129 59.6955C26.6159 59.9168 25.0402 60.2575 22.5223 60.6708C20.5578 60.9921 18.0211 61.3551 15.1653 61.7382C15.3709 67.4093 16.5382 72.5938 18.0606 76.9934C18.2648 77.5857 18.4768 78.1636 18.6932 78.7264C18.8599 79.1605 19.0296 79.5861 19.2028 80.0015L19.2043 80.0008Z" fill="#FD9E87"/>
<path d="M59.0284 30.6315L58.6567 29.6475C58.6136 29.5325 58.7027 29.3923 58.8573 29.3341L60.2266 28.928C60.8376 28.7878 61.4651 28.6735 61.5974 29.0243L61.6326 29.117C61.7728 29.4886 61.4831 29.9422 60.9849 30.1305L59.3863 30.7343C59.2325 30.7925 59.0722 30.7465 59.0291 30.6315H59.0284Z" fill="#3B3EF3"/>
<path d="M64.5732 36.9183L64.6329 35.769C64.6401 35.6346 64.791 35.5332 64.9715 35.5426L66.9 35.6425C67.4485 35.6705 67.8762 36.0256 67.8546 36.4346L67.8488 36.5431C67.8266 36.9773 67.3363 37.305 66.7548 37.2748L64.8874 37.1778C64.7077 37.1685 64.5675 37.052 64.574 36.9183H64.5732Z" fill="#3B3EF3"/>
<path d="M63.0845 47.8479L63.7638 46.9185C63.8429 46.81 64.1707 46.9142 64.1707 46.9142L65.7297 48.0535C66.1732 48.3776 66.3364 48.9081 66.0949 49.2387L66.0309 49.3264C65.7743 49.6772 65.1849 49.6829 64.7148 49.3393L63.2046 48.236C63.0594 48.1297 63.0055 47.9557 63.0845 47.8472V47.8479Z" fill="#3B3EF3"/>
<path d="M47.268 30.7582L46.897 30.0595C46.8539 29.9776 46.9215 29.8575 47.048 29.79L48.4044 29.0698C48.7904 28.8649 49.2094 28.9001 49.3417 29.1488L49.3769 29.215C49.5171 29.4787 49.2993 29.869 48.8896 30.0861L47.5763 30.7833C47.4498 30.8509 47.3118 30.8387 47.2687 30.7574L47.268 30.7582Z" fill="#3B3EF3"/>
<path d="M102.319 35.2949L54.1857 50.0068L59.8765 68.6251L108.011 53.9133L102.319 35.2949Z" fill="#BBCFF8"/>
<path d="M55.049 50.4653L60.3358 67.7611L107.147 53.454L101.86 36.1581L55.049 50.4646V50.4653ZM59.4172 69.4883L53.3224 49.5474L102.779 34.4316L108.874 54.3726L59.4172 69.4883Z" fill="#75A5ED"/>
<path d="M89.1075 49.8699C90.088 54.1732 87.3946 58.457 83.0911 59.4367C78.7876 60.4186 74.5042 57.7246 73.5231 53.422C72.5419 49.1188 75.236 44.8349 79.5395 43.8537C83.843 42.8733 88.1263 45.5673 89.1075 49.8699Z" fill="#6192E6"/>
<path d="M82.2802 59.4252L81.9496 57.6369C80.9195 57.8094 79.7975 57.6865 79.0959 57.3588L79.3015 56.0937C80.0174 56.4006 81.0007 56.5667 81.992 56.3834C83.2492 56.1505 83.9651 55.2679 83.7782 54.258C83.5985 53.2848 82.7963 52.8104 81.3875 52.5214C79.4503 52.1477 78.1845 51.5403 77.8991 49.9993C77.6274 48.5301 78.4655 47.2205 80.0455 46.6541L79.7148 44.8658L80.8131 44.6631L81.1308 46.3802C82.1997 46.2192 82.9782 46.368 83.5468 46.5729L83.3211 47.8242C82.9099 47.6798 82.1113 47.4246 80.9785 47.6345C79.6149 47.8868 79.2526 48.7967 79.3834 49.504C79.5538 50.4248 80.2942 50.764 81.9524 51.1162C83.9141 51.5231 85.0052 52.2735 85.2963 53.849C85.5551 55.2485 84.8241 56.7385 83.0551 57.3767L83.3958 59.2182L82.2802 59.4252Z" fill="#BBCFF8"/>
<path d="M94.4856 47.913C94.1909 46.9477 93.1687 46.405 92.2026 46.699C91.2373 46.9944 90.6939 48.0165 90.9893 48.9818C91.284 49.9472 92.3069 50.4913 93.2715 50.1958C94.2369 49.9004 94.7803 48.8783 94.4848 47.913H94.4856Z" fill="#6192E6"/>
<path d="M71.2323 55.0207C70.9368 54.0554 69.9154 53.512 68.9493 53.8067C67.984 54.1021 67.4406 55.1242 67.736 56.0895C68.0307 57.0548 69.0528 57.5982 70.0182 57.3035C70.9836 57.0081 71.527 55.986 71.2323 55.0207Z" fill="#6192E6"/>
<path d="M54.1699 53.7282C54.1699 53.7282 58.9133 50.3744 59.7407 51.6121C60.568 52.8498 55.5989 58.9112 55.5989 58.9112L54.1699 53.7282Z" fill="#FD9E87"/>
<path d="M57.6144 54.7809L56.4284 53.3858C56.2897 53.2226 56.3033 52.984 56.4586 52.8525L58.1205 51.4401C58.5927 51.0383 59.3187 51.1152 59.7407 51.6119L59.8521 51.7434C60.2999 52.2703 60.2568 53.0437 59.755 53.4692L58.1456 54.837C57.9904 54.9685 57.7524 54.9434 57.6144 54.7802V54.7809Z" fill="#3B3EF3"/>
<path d="M-6.84677 65.3523L22.5237 59.9248L29.0964 76.6945L30.0568 79.0341L-6.92224 98.3676C-6.92224 88.8842 -6.84605 74.3383 -6.84605 65.3515L-6.84677 65.3523Z" fill="#585AE8"/>
<path d="M22.9872 78.9842C23.6576 78.3139 23.6576 77.2271 22.9872 76.5568C22.3169 75.8865 21.23 75.8865 20.5597 76.5568C19.8894 77.2271 19.8894 78.3139 20.5597 78.9842C21.23 79.6545 22.3169 79.6545 22.9872 78.9842Z" fill="#140775"/>
<path d="M14.1045 82.4481C14.9814 82.0879 15.4003 81.0851 15.0402 80.2082C14.68 79.3314 13.6771 78.9125 12.8002 79.2727C11.9233 79.6328 11.5044 80.6356 11.8646 81.5125C12.2248 82.3894 13.2276 82.8083 14.1045 82.4481Z" fill="#140775"/>
<path d="M5.07112 86.011C6.01913 86.011 6.78763 85.2425 6.78763 84.2946C6.78763 83.3466 6.01913 82.5781 5.07112 82.5781C4.12312 82.5781 3.35461 83.3466 3.35461 84.2946C3.35461 85.2425 4.12312 86.011 5.07112 86.011Z" fill="#140775"/>
<path d="M97.3255 81.8408H134.304V54.1983H97.3255V81.8408Z" fill="#4851EC"/>
<path d="M99.39 56.1729H132.06V79.6875H99.39V56.1729ZM131.881 56.3518H99.5697V79.5071H131.881V56.3518Z" fill="#0B0755"/>
<path d="M96.642 70.9688H112.886V66.0078H96.642V70.9688Z" fill="#4851EC"/>
<path d="M96.5521 65.917H112.975V71.0577H96.5521V65.917ZM112.796 66.0967H96.7318V70.8787H112.796V66.0967Z" fill="#0B0755"/>
<path d="M110.669 68.5579C110.669 68.0619 110.267 67.6602 109.771 67.6602C109.275 67.6602 108.873 68.0619 108.873 68.5579C108.873 69.0539 109.275 69.4557 109.771 69.4557C110.267 69.4557 110.669 69.0539 110.669 68.5579Z" fill="#A8A9F0"/>
<path d="M168.571 103.576C161.986 97.6781 149.322 86.1921 146.603 82.6766C143.479 78.6364 138.027 72.0424 134.327 70.8945C130.837 69.8113 125.112 70.5502 118.101 70.87C109.768 71.2503 104.417 72.2594 103.133 72.897C101.362 73.7768 102.017 76.0502 104.391 77.3196C106.623 78.5135 117.29 76.6332 118.696 79.5744C119.154 80.5339 106.789 81.8579 104.833 81.5481C102.876 81.2383 92.6591 71.5371 88.8983 69.3606C85.1368 67.1842 82.6598 68.9861 82.6907 69.4663C82.7633 70.6163 97.6088 88.6561 102.296 92.5849C106.984 96.5123 129.784 91.8014 132.95 91.9725C135.281 92.0983 151.988 111.328 156.593 116.713C162.447 116.708 160.615 106.571 166.177 104.522C166.98 104.225 167.778 103.91 168.569 103.576H168.571Z" fill="#F9A58F"/>
<path d="M154.215 86.0758L148.088 81.1572L135.21 95.6319L139.369 101.666L154.215 86.0758Z" fill="white"/>
<path d="M137.817 100.245L153.142 83.2529C153.142 83.2529 167.966 92.6746 181.8 101.674C181.853 101.829 216.56 124.398 216.613 124.553C220.886 136.99 201.311 142.633 191.832 160.947C173.523 142.243 137.818 100.245 137.818 100.245H137.817Z" fill="#160A72"/>
<path d="M138.108 95.3205C138.502 95.5073 138.67 95.9774 138.483 96.3713C138.296 96.7652 137.826 96.9334 137.432 96.7465C137.038 96.5596 136.87 96.0895 137.057 95.6957C137.244 95.3018 137.714 95.1336 138.108 95.3205Z" fill="#100259"/>
</g>
</g>
</svg>
