<svg width="48" height="48" viewBox="0 0 48 48" fill="none" xmlns="http://www.w3.org/2000/svg">
<g clip-path="url(#clip0_922_9158)">
<path fill-rule="evenodd" clip-rule="evenodd" d="M12.2747 0.9989L13.2683 0.842024C20.3787 -0.280675 27.6213 -0.280675 34.7318 0.842024L35.7253 0.9989C41.531 1.91558 46.0844 6.46909 47.0011 12.2747L47.158 13.2683C48.2807 20.3787 48.2807 27.6213 47.158 34.7318L47.0011 35.7253C46.0844 41.531 41.531 46.0844 35.7253 47.0011L34.7318 47.158C27.6213 48.2807 20.3787 48.2807 13.2683 47.158L12.2747 47.0011C6.46909 46.0844 1.91558 41.531 0.9989 35.7253L0.842024 34.7318C-0.280675 27.6213 -0.280675 20.3787 0.842024 13.2683L0.9989 12.2747C1.91558 6.46909 6.46909 1.91558 12.2747 0.9989Z" fill="#008EFA"/>
<path fill-rule="evenodd" clip-rule="evenodd" d="M40.0216 16.3234L38.0557 23.9759H39.6901C40.481 23.9759 41.1717 23.4336 41.3694 22.6573L42.9997 16.3234H40.0216Z" fill="white"/>
<path fill-rule="evenodd" clip-rule="evenodd" d="M39.0367 25.0582C38.0236 25.0582 37.2012 25.8918 37.2012 26.9184C37.2012 27.9451 38.0236 28.7789 39.0367 28.7789C40.0495 28.7789 40.8719 27.9451 40.8719 26.9184C40.8719 25.8918 40.0495 25.0582 39.0367 25.0582Z" fill="white"/>
<path fill-rule="evenodd" clip-rule="evenodd" d="M9.15767 21.4812H8.122V18.5031H9.15767C10.3046 18.5031 10.8777 18.9995 10.8777 19.9922C10.8777 20.985 10.3046 21.4812 9.15767 21.4812ZM9.97021 16H5V27.9445H8.122V23.9841H9.97021C11.3185 23.9841 12.3517 23.6358 13.0685 22.9386C13.7853 22.2416 14.1438 21.2594 14.1438 19.9922C14.1438 18.7248 13.7853 17.7427 13.0685 17.0455C12.3517 16.3486 11.3185 16 9.97021 16Z" fill="white"/>
<path fill-rule="evenodd" clip-rule="evenodd" d="M21.2725 24.6019C21.1712 24.8238 21.0385 25.0193 20.8741 25.1883C20.7095 25.3573 20.5129 25.489 20.2847 25.584C20.0562 25.6792 19.8147 25.7268 19.5602 25.7268C19.2942 25.7268 19.0474 25.6792 18.8192 25.584C18.5907 25.489 18.3944 25.3573 18.2298 25.1883C18.0652 25.0193 17.9351 24.8212 17.8394 24.594C17.7439 24.367 17.696 24.1216 17.696 23.8574C17.696 23.604 17.7439 23.3689 17.8394 23.1525C17.9351 22.9361 18.0652 22.7433 18.2298 22.5743C18.3944 22.4056 18.5907 22.2733 18.8192 22.1781C19.0474 22.0832 19.2942 22.0356 19.5602 22.0356C19.8147 22.0356 20.0562 22.0832 20.2847 22.1781C20.5129 22.2733 20.7095 22.4056 20.8741 22.5743C21.0385 22.7433 21.1712 22.9412 21.2725 23.1684C21.3733 23.3956 21.4236 23.6357 21.4236 23.8891C21.4236 24.1425 21.3733 24.3803 21.2725 24.6019ZM21.3281 20.6258C20.6589 19.9183 19.8147 19.5645 18.7955 19.5645C18.1902 19.5645 17.6375 19.6779 17.1385 19.9049C16.6393 20.1323 16.2092 20.4412 15.8483 20.8319C15.4869 21.2225 15.2055 21.6791 15.0038 22.2019C14.802 22.7246 14.7012 23.2766 14.7012 23.8574C14.7012 24.4807 14.8049 25.0563 15.0116 25.584C15.219 26.1121 15.5084 26.5718 15.8802 26.9625C16.2515 27.3531 16.6872 27.6567 17.1864 27.8731C17.6851 28.0895 18.2325 28.1979 18.8272 28.1979C19.8786 28.1979 20.7121 27.8125 21.3281 27.0413V27.9445H24.2275V19.8178H21.3281V20.6258Z" fill="white"/>
<path fill-rule="evenodd" clip-rule="evenodd" d="M30.5677 23.9841L28.3852 19.8176H25.04L28.9905 26.8355L26.2029 31.9999H29.4368L36.0002 19.8176H32.6865L30.5677 23.9841Z" fill="white"/>
</g>
<defs>
<clipPath id="clip0_922_9158">
<rect width="48" height="48" fill="white"/>
</clipPath>
</defs>
</svg>
